<svg xmlns="http://www.w3.org/2000/svg" width="48.35" height="49.895" viewBox="0 0 48.35 49.895">
  <path id="icons8-tik-tok" d="M46.594,4H9.756A5.857,5.857,0,0,0,4,9.94V47.955a5.857,5.857,0,0,0,5.756,5.94H46.594a5.857,5.857,0,0,0,5.756-5.94V9.94A5.857,5.857,0,0,0,46.594,4ZM42,25.767c-.261.025-.526.042-.794.042a8.561,8.561,0,0,1-7.217-4.025V35.489a9.977,9.977,0,0,1-9.816,10.13,10.135,10.135,0,0,1,0-20.26c.2,0,.405.019.607.032v4.992a4.885,4.885,0,0,0-.607-.063,5.173,5.173,0,0,0,0,10.34,5.207,5.207,0,0,0,5.211-5.106c0-.113.048-23.277.048-23.277h4.623A8.75,8.75,0,0,0,42,20.219Z" transform="translate(-4 -4)"/>
</svg>
